inDegrees=no
num_controls=7
num_derivatives=13
num_iterations=222
num_multipliers=7
num_parameters=0
num_slacks=7
num_states=26
objective=6.319534
objective_accelerations=0.659818
objective_balance=0.020960
objective_effort=0.534723
objective_height=5.036460
objective_ligament=0.067574
solver_duration=1894.456477
status=Solve_Succeeded
success=true
DataType=double
version=3
OpenSimVersion=4.4-2022-07-23-0e9fedc
endheader
time	/jointset/ground_pelvis/pelvis_tilt/value	/jointset/ground_pelvis/pelvis_tx/value	/jointset/ground_pelvis/pelvis_ty/value	/jointset/hip_r/hip_flexion_r/value	/jointset/hip_r/hip_adduction_r/value	/jointset/hip_r/hip_rotation_r/value	/jointset/back/lumbar_extension/value	/jointset/patellofemoral_r/patellar_flexion_r/value	/jointset/knee_r/knee_flexion_r/value	/jointset/knee_r/knee_adduction_r/value	/jointset/knee_r/knee_rotation_r/value	/jointset/ankle_r/ankle_angle_r/value	/jointset/subtalar_r/subtalar_angle_r/value	/jointset/ground_pelvis/pelvis_tilt/speed	/jointset/ground_pelvis/pelvis_tx/speed	/jointset/ground_pelvis/pelvis_ty/speed	/jointset/hip_r/hip_flexion_r/speed	/jointset/hip_r/hip_adduction_r/speed	/jointset/hip_r/hip_rotation_r/speed	/jointset/back/lumbar_extension/speed	/jointset/patellofemoral_r/patellar_flexion_r/speed	/jointset/knee_r/knee_flexion_r/speed	/jointset/knee_r/knee_adduction_r/speed	/jointset/knee_r/knee_rotation_r/speed	/jointset/ankle_r/ankle_angle_r/speed	/jointset/subtalar_r/subtalar_angle_r/speed	/forceset/tau_hip_flexion_r	/forceset/tau_hip_adduction_r	/forceset/tau_hip_rotation_r	/forceset/tau_knee_flexion_r	/forceset/tau_ankle_angle_r	/forceset/tau_subtalar_angle_r	/forceset/tau_lumbar_extension	lambda_cid13_p0	lambda_cid14_p0	lambda_cid14_p1	lambda_cid14_p2	lambda_cid14_p3	lambda_cid14_p4	lambda_cid14_p5	/jointset/ground_pelvis/pelvis_tilt/accel	/jointset/ground_pelvis/pelvis_tx/accel	/jointset/ground_pelvis/pelvis_ty/accel	/jointset/hip_r/hip_flexion_r/accel	/jointset/hip_r/hip_adduction_r/accel	/jointset/hip_r/hip_rotation_r/accel	/jointset/back/lumbar_extension/accel	/jointset/patellofemoral_r/patellar_flexion_r/accel	/jointset/knee_r/knee_flexion_r/accel	/jointset/knee_r/knee_adduction_r/accel	/jointset/knee_r/knee_rotation_r/accel	/jointset/ankle_r/ankle_angle_r/accel	/jointset/subtalar_r/subtalar_angle_r/accel	gamma_cid13_p0	gamma_cid14_p0	gamma_cid14_p1	gamma_cid14_p2	gamma_cid14_p3	gamma_cid14_p4	gamma_cid14_p5
1.5	-0.1859299558272674	0.01833969145942214	0.8312853248594726	0.8952186881724833	-0.2198339822022882	-0.1343801128464751	-0.3021447249438878	0.7864921740903111	0.7864921740903348	-0.005310664316506465	0.1745322606549749	0.2560778648045149	0.06815902207812871	0.4280724273505784	0.1972336452523762	0.4990871362987923	-2.058055808209045	0.003574260128179415	-0.2414583491567115	0.6999970742388661	-2.130626011635459	-2.130626011635533	0.4142762641208987	-0.000130864481117	-0.6076068858629299	-0.1769846280990377	-0.1167271074386036	-0.0266955019243873	0.01166029877112729	-0.3481280667071045	0.09698076163634611	-0.004489285024129465	0.1577572361074256	-26.14166105036507	-9.448044481051801	-0.3879188551166615	-3.151702990640759	-3.355694975068092	-648.6501345077844	63.69102739640191	0.3463708174986115	0.5616436373091425	-0.6511570012645087	-1.134879147177921	-0.1475517347360112	-0.7012925297404243	1.616807866824205	-1.205286395049701	-1.205286395049699	0.4666355512658856	-0.07707999627678974	-0.5937615586117539	-0.210538853805273	1.241379969581991e-07	-1.735033982963837e-07	-2.794136829212852e-06	-1.389409319996161e-06	4.285201832449456e-07	-4.635873078755393e-08	-1.145744966219997e-06
1.51	-0.1816325110538927	0.02033981709822002	0.8362425248049993	0.8745841679162494	-0.2198052602971564	-0.1368364385707086	-0.2950649814643713	0.7651284773164208	0.76512847731645	-0.001149581094225676	0.1745318794305015	0.2499731320181769	0.06637961966705949	0.431353003249921	0.2027585225788514	0.4922435710337568	-2.068562748395702	0.002171990989079491	-0.2497611220656539	0.7158458033331864	-2.141800457071775	-2.141800457071804	0.4179617475977765	3.409157699965354e-05	-0.6132454949287383	-0.1788604854929628	-0.1097964506068373	-0.02747720145906949	0.01125180674674064	-0.3435996632642342	0.09937540680026967	-0.006073601432688579	0.151428697542227	-27.46060456503446	-8.488651003959808	-0.8290033567404315	-3.171622649791557	-3.589776108775332	-643.6927648062508	62.83134299735016	0.3093371396447606	0.5431175785856962	-0.7174112615007253	-0.9658268344309897	-0.1372180795013346	-0.8880537829673558	1.553032681030675	-1.026609744943051	-1.026609744936257	0.321954517154256	0.05947335252666557	-0.5346542733411066	-0.1718928979818573	1.050310715958898e-07	-3.615883927279642e-07	-3.67936458753196e-06	-2.922733078964773e-06	6.465955036748747e-07	-2.226933120964245e-07	-1.181992046792773e-06
1.52	-0.1773041732888257	0.02239423306993646	0.8411279981034	0.8538531331821455	-0.2197906917986157	-0.1393744488463315	-0.2878299252438526	0.7436624188627633	0.7436624188627985	0.003048846917075402	0.1745323857557174	0.2438148644026257	0.06458230193889189	0.4342510256889701	0.2080917118360899	0.4847418068736255	-2.077358703783216	0.0007435788098047347	-0.2577952594344438	0.7310596224392963	-2.151098347588911	-2.151098347588894	0.421745221924875	4.664546194695288e-05	-0.6183138517055751	-0.1805676915187172	-0.1028657937750648	-0.02825890099375123	0.01084331472235345	-0.3390712598213623	0.1017700519641935	-0.007657917841246596	0.1451001589770337	-28.7601004448738	-7.535110319357462	-1.27042054570325	-3.192275518721166	-3.805909875260542	-638.8388851631516	61.93650412055141	0.2698601254399118	0.5233060234618404	-0.78279678028366	-0.7926821873492124	-0.1527803427709719	-0.6475654217099073	1.489825869182138	-0.8299754112135338	-0.8299754112135338	0.4862337213099928	-0.1075604309106775	-0.4797111008174003	-0.1768085801711305	9.190558635707812e-08	-4.633310238013424e-07	-4.105031461581373e-06	-3.7828797407103e-06	7.566873340128639e-07	-3.252769436893436e-07	-1.105840832775467e-06
1.53	-0.172948847120097	0.02450096765930094	0.845935283159336	0.8330427357199666	-0.2197901909085012	-0.1419921525176416	-0.2804461338809717	0.722112687859253	0.7221126878592861	0.007284742224490952	0.1745325746495835	0.2376088475590291	0.06276921539083279	0.4367405571922935	0.2132168839027574	0.4766164524470274	-2.084427223915051	-0.0006310431872901775	-0.2657481076640527	0.7455733062065889	-2.158538472355495	-2.158538472355493	0.4254071305251503	1.120863371248935e-06	-0.622791517747382	-0.1820015309754399	-0.09565403691426355	-0.03010536361445196	0.01021611086068241	-0.3351082287075849	0.1045480015689062	-0.008448900242840835	0.1385780917367234	-30.03879432984231	-6.436710432736125	-1.282204853225579	-3.349647281197547	-4.139398458222954	-634.3277336402078	61.96636835054915	0.2274153720321871	0.501524390683605	-0.8422900474609617	-0.6199541303970234	-0.1289449289924875	-0.8697340323565799	1.413338040936415	-0.6546401979309684	-0.6546401979330301	0.3013830633710648	0.04768411402725384	-0.4169636748947058	-0.1205625698712523	8.513538124948268e-08	-4.733348938066316e-07	-4.04241489609424e-06	-3.927775736656307e-06	7.520467061281678e-07	-3.495001912090651e-07	-9.102664307561994e-07
1.54	-0.1685708424944842	0.026657834287815	0.8506583376162834	0.8121704496156107	-0.2198032645985199	-0.1446895025730029	-0.2729209659983309	0.7004978337703666	0.7004978337703982	0.01155629934470596	0.1745324548151736	0.2313610201912079	0.06094301225991678	0.4387867170657614	0.2181181196660043	0.4678956870759162	-2.089736432218739	-0.001971337216932911	-0.2737245362444697	0.7593349263912255	-2.164122964664081	-2.164122964664092	0.4288775844848173	-1.510020087351604e-05	-0.6266759565504838	-0.1831910080900994	-0.08844228005345869	-0.03195182623515876	0.009588906999027402	-0.3311451975938056	0.1073259511736174	-0.009239882644443474	0.132056024496417	-31.29626584702961	-5.343498535882055	-1.300210883894856	-3.499953613874183	-4.452876584075662	-629.8931616988525	61.93525118446076	0.1811857994687645	0.4785187627777425	-0.9018789691863108	-0.4408198217199351	-0.1459147492805432	-0.6522814918715547	1.339413152650916	-0.4588489196137723	-0.4588489196137752	0.4479427931883506	-0.1016997240444808	-0.3610656530763861	-0.1279361117584821	8.084822980953138e-08	-4.787613900015288e-07	-3.942144557643319e-06	-3.997928048444426e-06	7.44919350032885e-07	-3.858659223677226e-07	-7.157520845051886e-07
